<?xml version="1.0" standalone="no"?><svg xmlns="http://www.w3.org/2000/svg" viewBox="0 0 1440 320"><path fill="#e7edf6" fill-opacity="1" d="M0,288L40,272C80,256,160,224,240,186.7C320,149,400,107,480,128C560,149,640,235,720,272C800,309,880,299,960,272C1040,245,1120,203,1200,208C1280,213,1360,267,1400,293.3L1440,320L1440,320L1400,320C1360,320,1280,320,1200,320C1120,320,1040,320,960,320C880,320,800,320,720,320C640,320,560,320,480,320C400,320,320,320,240,320C160,320,80,320,40,320L0,320Z"></path></svg>